<svg id="Capa_1" data-name="Capa 1" xmlns="http://www.w3.org/2000/svg" viewBox="0 0 530.46 434.2"><defs><style>.cls-1,.cls-3,.cls-4{fill:none;stroke-miterlimit:10;}.cls-1{stroke:#a64600;stroke-width:6px;}.cls-2,.cls-6{fill:#a64600;}.cls-3,.cls-4{stroke:#00675c;}.cls-3{stroke-width:5px;}.cls-5,.cls-7{fill:#00675c;}.cls-6{font-size:123.29px;font-family:Lato-Light, Lato;font-weight:300;}.cls-7{font-size:154.26px;font-family:BebasNeueBold, Bebas Neue;font-weight:400;}</style></defs><title>LogoSvg</title><path class="cls-1" d="M410,175.56a121.87,121.87,0,0,0-233.83-7.47c-.8,2.46-1.53,4.95-2.17,7.47" transform="translate(-26.72 -81.1)"/><rect class="cls-2" x="218.95" y="219.8" width="14.12" height="6.82" transform="translate(50.74 -138.67) rotate(17.48)"/><path class="cls-2" d="M231.82,228.76l-13.75-4.33,2.14-6.77L234,222Zm-13.38-4.52,13.19,4.16,2-6.23L220.4,218Z" transform="translate(-26.72 -81.1)"/><polygon class="cls-2" points="202.13 133.05 203.66 139.91 196.96 137.8 202.13 133.05"/><path class="cls-2" d="M230.57,221.22,223.39,219l5.55-5.09ZM224,218.84l6.22,1.95-1.41-6.36Z" transform="translate(-26.72 -81.1)"/><polygon class="cls-2" points="184.75 141.1 167.7 195.24 171.4 196.41 187.33 145.83 207.09 152.05 191.16 202.63 194.73 203.75 211.77 149.61 184.75 141.1"/><path class="cls-2" d="M221.54,285l-3.84-1.21,15.92-50.58-19.48-6.14-15.92,50.58-4-1.25L211.37,222l27.3,8.59Zm-3.48-1.4,3.29,1,17-53.86-26.75-8.43-17,53.87,3.43,1.08L214,226.75l20,6.31Z" transform="translate(-26.72 -81.1)"/><line class="cls-2" x1="197.75" y1="146.97" x2="184.42" y2="189.32"/><rect class="cls-2" x="195.61" y="248.52" width="44.39" height="1.46" transform="translate(-112.07 301.04) rotate(-72.52)"/><circle class="cls-2" cx="184.43" cy="189.32" r="3.6"/><path class="cls-2" d="M210,274a3.75,3.75,0,1,1,4.7-2.45A3.75,3.75,0,0,1,210,274Zm2.17-6.88a3.46,3.46,0,1,0,2.26,4.34A3.47,3.47,0,0,0,212.19,267.12Z" transform="translate(-26.72 -81.1)"/><polygon class="cls-2" points="159.57 190.07 131.56 187.19 139.24 112.43 166.24 125.24 159.57 190.07"/><path class="cls-2" d="M137.16,266.12l18.53,1.9,9.54-92.77a134.07,134.07,0,0,0-13.17,11.8,103.83,103.83,0,0,0-9.41,11.26c-3.35,5-4.8,7.93-5.58,10.45a58,58,0,0,0-2.16,7.29c-.42,2.15-1.37,7.27-2,13-.4,3.75.27,11.68,1,18.22C134.4,252,135.74,262,137.16,266.12Z" transform="translate(-26.72 -81.1)"/><polygon class="cls-2" points="227.35 221.11 200.75 208.61 224.62 164.83 245.73 174.75 227.35 221.11"/><rect class="cls-2" x="251.18" y="244.2" width="3.09" height="4.76" transform="translate(102.21 -165.2) rotate(25.18)"/><rect class="cls-2" x="257.28" y="247.07" width="3.09" height="4.76" transform="translate(104.01 -167.52) rotate(25.18)"/><rect class="cls-2" x="263.41" y="249.95" width="3.09" height="4.76" transform="matrix(0.9, 0.43, -0.43, 0.9, 105.82, -169.85)"/><rect class="cls-2" x="269.54" y="252.84" width="3.09" height="4.76" transform="translate(107.63 -172.19) rotate(25.18)"/><rect class="cls-2" x="237.16" y="271.1" width="29.32" height="2.73" transform="translate(113.14 -162.35) rotate(25.18)"/><rect class="cls-2" x="311.52" y="290.35" width="5.14" height="5.14" rx="2.57" transform="translate(-103.22 33.24) rotate(-18.43)"/><rect class="cls-2" x="326.6" y="263.38" width="5.14" height="5.14" rx="2.57" transform="translate(-93.92 36.62) rotate(-18.43)"/><rect class="cls-2" x="347.64" y="270.42" width="5.14" height="5.14" rx="2.57" transform="translate(-95.07 43.63) rotate(-18.43)"/><rect class="cls-2" x="369.14" y="220.03" width="5.14" height="5.14" rx="2.57" transform="translate(-78.03 47.85) rotate(-18.43)"/><rect class="cls-2" x="398.8" y="231.39" width="5.14" height="5.14" rx="2.57" transform="translate(-80.1 57.81) rotate(-18.43)"/><rect class="cls-2" x="408.76" y="211.02" width="5.14" height="5.14" rx="2.57" transform="translate(-73.15 59.91) rotate(-18.43)"/><polygon class="cls-2" points="414.31 170.98 384.74 133.68 374.97 153.66 345.34 142.32 323.85 192.68 302.75 185.62 287.93 212.13 286.81 211.51 302.15 184.07 323.14 191.1 344.64 140.69 374.33 152.05 384.48 131.3 415.31 170.19 414.31 170.98"/><rect class="cls-2" x="438.96" y="249.11" width="5.14" height="5.14" rx="2.57" transform="translate(-83.65 71.41) rotate(-18.43)"/><path class="cls-3" d="M292,327.5s-43.23-21.88-87.64-31.22-90.85,2.9-90.85,2.9" transform="translate(-26.72 -81.1)"/><path class="cls-4" d="M292,327.5s-42.59-23.1-86.71-33.71-90.9.31-90.9.31" transform="translate(-26.72 -81.1)"/><path class="cls-3" d="M292,327.5S250.78,302,207.34,288.82s-90.76-5-90.76-5" transform="translate(-26.72 -81.1)"/><path class="cls-4" d="M292,327.5s-41.9-24.33-85.7-36.21S115.39,289,115.39,289" transform="translate(-26.72 -81.1)"/><path class="cls-3" d="M292,327.5s-38.67-29.19-80.72-46.24S121.29,268,121.29,268" transform="translate(-26.72 -81.1)"/><path class="cls-4" d="M292,327.5s-39.55-28-82.11-43.73-90.3-10.44-90.3-10.44" transform="translate(-26.72 -81.1)"/><path class="cls-4" d="M292,327.5s-40.37-26.79-83.38-41.27S118,278.48,118,278.48" transform="translate(-26.72 -81.1)"/><path class="cls-3" d="M292,327.5s45.4-23,92.05-32.8,95.43,3.06,95.43,3.06" transform="translate(-26.72 -81.1)"/><path class="cls-4" d="M292,327.5s44.73-24.27,91.08-35.41,95.48.33,95.48.33" transform="translate(-26.72 -81.1)"/><path class="cls-3" d="M292,327.5s43.24-26.82,88.87-40.63,95.34-5.21,95.34-5.21" transform="translate(-26.72 -81.1)"/><path class="cls-4" d="M292,327.5s44-25.56,90-38S477.41,287,477.41,287" transform="translate(-26.72 -81.1)"/><path class="cls-3" d="M292,327.5s40.62-30.66,84.79-48.57S471.21,265,471.21,265" transform="translate(-26.72 -81.1)"/><path class="cls-4" d="M292,327.5s41.54-29.39,86.25-45.93,94.85-11,94.85-11" transform="translate(-26.72 -81.1)"/><path class="cls-4" d="M292,327.5s42.4-28.14,87.57-43.35S474.66,276,474.66,276" transform="translate(-26.72 -81.1)"/><path class="cls-5" d="M292,340.17,146.28,316.5H104.45A6.5,6.5,0,0,1,98,310h0a6.5,6.5,0,0,1,6.5-6.5H146l146,24Z" transform="translate(-26.72 -81.1)"/><path class="cls-5" d="M292,340.17,437.61,316.5h41.84A6.5,6.5,0,0,0,486,310h0a6.5,6.5,0,0,0-6.5-6.5H438l-146,24Z" transform="translate(-26.72 -81.1)"/><text class="cls-6" transform="translate(0 406.58)">Open<tspan class="cls-7" x="293.98" y="0">Tera</tspan></text></svg>